<?xml version="1.0" standalone="no"?>
<!DOCTYPE svg PUBLIC "-//W3C//DTD SVG 20010904//EN"
 "http://www.w3.org/TR/2001/REC-SVG-20010904/DTD/svg10.dtd">
<svg version="1.0" xmlns="http://www.w3.org/2000/svg"
 width="225.000000pt" height="198.000000pt" viewBox="0 0 225.000000 198.000000"
 preserveAspectRatio="xMidYMid meet">

<g transform="translate(0.000000,198.000000) scale(0.100000,-0.100000)"
fill="#ff0000" stroke="none">
<path d="M1043 1800 c-85 -17 -194 -90 -238 -160 -13 -20 -92 -156 -176 -301
-83 -145 -192 -334 -242 -419 -112 -191 -127 -229 -127 -324 0 -88 25 -168 75
-236 42 -58 86 -92 163 -128 l57 -27 532 -3 c333 -2 553 1 588 7 211 39 351
238 315 449 -10 62 -31 103 -222 433 -115 200 -235 408 -266 462 -32 54 -75
117 -97 139 -97 96 -225 135 -362 108z m-117 -538 c55 -44 59 -109 10 -158
-27 -27 -42 -34 -74 -34 -103 0 -146 126 -64 190 31 25 99 26 128 2z m525 8
c46 -25 49 -49 49 -392 0 -356 1 -352 -62 -384 -39 -20 -84 -12 -120 23 -27
26 -28 31 -28 120 0 86 -2 96 -25 118 -21 22 -33 25 -93 25 -78 0 -110 17
-132 69 -16 39 -6 76 30 112 26 27 34 29 102 29 108 0 111 5 118 135 5 102 6
108 33 131 30 26 92 33 128 14z m-515 -314 l34 -34 0 -176 c0 -196 -7 -223
-60 -251 -38 -20 -65 -19 -101 2 -51 30 -59 64 -59 237 0 169 9 210 51 240 13
9 41 16 62 16 31 0 46 -7 73 -34z"/>
</g>
</svg>
